<svg xmlns="http://www.w3.org/2000/svg" xmlns:xlink="http://www.w3.org/1999/xlink" version="1.1" id="Capa_1" x="0px" y="0px" viewBox="0 0 53.943 53.943" style="enable-background:new 0 0 53.943 53.943;" xml:space="preserve">
<g>
	<path d="M15.409,42.435l6.483-3.242L4.255,32.695l6.498,17.638l3.242-6.484l6.797,6.797c0.195,0.195,0.451,0.293,0.707,0.293   s0.512-0.098,0.707-0.293c0.391-0.391,0.391-1.023,0-1.414L15.409,42.435z M7.63,36.07l9.232,3.402l-3.887,1.943l-1.943,3.888   L7.63,36.07z" style="fill: rgb(145, 220, 90);"></path>
	<path d="M53.364,40.908c-2.008-3.796-8.981-7.912-9.287-8.092c-0.896-0.51-1.831-0.78-2.706-0.78c-1.301,0-2.366,0.596-3.011,1.68   c-1.02,1.22-2.285,2.646-2.592,2.867c-2.376,1.612-4.237,1.429-6.294-0.629L17.987,24.467c-2.045-2.045-2.233-3.928-0.631-6.291   c0.224-0.31,1.649-1.575,2.87-2.596c0.778-0.463,1.312-1.15,1.545-1.995c0.307-1.106,0.071-2.463-0.652-3.732   c-0.173-0.296-4.29-7.269-8.085-9.276c-0.708-0.375-1.506-0.573-2.306-0.573c-1.319,0-2.558,0.514-3.49,1.445L4.7,3.986   c-4.014,4.013-5.467,8.562-4.321,13.52c0.867,3.75,3.259,7.72,7.083,11.814c1.018-0.24,2.074-0.38,3.164-0.38   c7.607,0,13.796,6.188,13.796,13.796c0,1.101-0.143,2.167-0.388,3.193c5.502,5.311,10.752,8.011,15.614,8.011   c3.721,0,7.189-1.581,10.307-4.699l2.537-2.537C54.033,45.163,54.383,42.834,53.364,40.908z" style="fill: rgb(145, 220, 90);"></path>
</g>
<g>
</g>
<g>
</g>
<g>
</g>
<g>
</g>
<g>
</g>
<g>
</g>
<g>
</g>
<g>
</g>
<g>
</g>
<g>
</g>
<g>
</g>
<g>
</g>
<g>
</g>
<g>
</g>
<g>
</g>
</svg>