<svg xmlns="http://www.w3.org/2000/svg" xmlns:xlink="http://www.w3.org/1999/xlink" version="1.1" id="Layer_1" x="0px" y="0px" viewBox="0 0 512 512" style="enable-background:new 0 0 512 512;" xml:space="preserve">
<g>
	<g>
		<g>
			<path d="M291.31,52.966h26.483c4.882,0,8.828-3.946,8.828-8.828s-3.946-8.828-8.828-8.828H291.31     c-4.882,0-8.828,3.946-8.828,8.828S286.429,52.966,291.31,52.966z" style="fill: rgb(216, 0, 39);"></path>
			<path d="M353.103,52.966h70.621c4.882,0,8.828-3.946,8.828-8.828s-3.946-8.828-8.828-8.828h-70.621     c-4.882,0-8.828,3.946-8.828,8.828S348.222,52.966,353.103,52.966z" style="fill: rgb(216, 0, 39);"></path>
			<path d="M291.31,88.276h70.621c4.882,0,8.828-3.946,8.828-8.828c0-4.882-3.946-8.828-8.828-8.828H291.31     c-4.882,0-8.828,3.946-8.828,8.828C282.483,84.33,286.429,88.276,291.31,88.276z" style="fill: rgb(216, 0, 39);"></path>
			<path d="M423.724,70.621h-26.483c-4.882,0-8.828,3.946-8.828,8.828c0,4.882,3.946,8.828,8.828,8.828h26.483     c4.882,0,8.828-3.946,8.828-8.828C432.552,74.567,428.606,70.621,423.724,70.621z" style="fill: rgb(216, 0, 39);"></path>
			<rect x="264.828" y="238.345" width="26.483" height="26.483" style="fill: rgb(216, 0, 39);"></rect>
			<rect x="344.276" y="238.345" width="26.483" height="26.483" style="fill: rgb(216, 0, 39);"></rect>
			<rect x="423.724" y="397.241" width="26.483" height="26.483" style="fill: rgb(216, 0, 39);"></rect>
			<rect x="264.828" y="397.241" width="26.483" height="26.483" style="fill: rgb(216, 0, 39);"></rect>
			<rect x="344.276" y="317.793" width="26.483" height="26.483" style="fill: rgb(216, 0, 39);"></rect>
			<rect x="264.828" y="158.897" width="26.483" height="26.483" style="fill: rgb(216, 0, 39);"></rect>
			<rect x="344.276" y="397.241" width="26.483" height="26.483" style="fill: rgb(216, 0, 39);"></rect>
			<rect x="344.276" y="158.897" width="26.483" height="26.483" style="fill: rgb(216, 0, 39);"></rect>
			<rect x="423.724" y="238.345" width="26.483" height="26.483" style="fill: rgb(216, 0, 39);"></rect>
			<rect x="264.828" y="317.793" width="26.483" height="26.483" style="fill: rgb(216, 0, 39);"></rect>
			<rect x="423.724" y="317.793" width="26.483" height="26.483" style="fill: rgb(216, 0, 39);"></rect>
			<rect x="423.724" y="158.897" width="26.483" height="26.483" style="fill: rgb(216, 0, 39);"></rect>
			<path d="M476.69,35.31h-8.828v-8.828C467.862,11.882,455.98,0,441.379,0H273.655c-14.601,0-26.483,11.882-26.483,26.483v8.828     H220.69v-8.828C220.69,11.882,208.808,0,194.207,0H70.621C56.02,0,44.138,11.882,44.138,26.483v8.828H35.31     c-14.601,0-26.483,11.882-26.483,26.483v26.483v397.241C8.828,500.118,20.71,512,35.31,512H476.69     c14.601,0,26.483-11.882,26.483-26.483V88.276V61.793C503.172,47.192,491.29,35.31,476.69,35.31z M203.034,44.138v44.138v344.276     c0,4.873-3.955,8.828-8.828,8.828H70.621c-4.873,0-8.828-3.955-8.828-8.828V88.276V44.138V26.483     c0-4.873,3.955-8.828,8.828-8.828h123.586c4.873,0,8.828,3.955,8.828,8.828V44.138z M264.828,88.276V44.138V26.483     c0-4.873,3.955-8.828,8.828-8.828h167.724c4.873,0,8.828,3.955,8.828,8.828v17.655v44.138v8.828c0,4.873-3.955,8.828-8.828,8.828     H273.655c-4.873,0-8.828-3.955-8.828-8.828V88.276z M308.966,432.552c0,4.882-3.946,8.828-8.828,8.828H256     c-4.882,0-8.828-3.946-8.828-8.828v-44.138c0-4.882,3.946-8.828,8.828-8.828h44.138c4.882,0,8.828,3.946,8.828,8.828V432.552z      M308.966,353.103c0,4.882-3.946,8.828-8.828,8.828H256c-4.882,0-8.828-3.946-8.828-8.828v-44.138     c0-4.882,3.946-8.828,8.828-8.828h44.138c4.882,0,8.828,3.946,8.828,8.828V353.103z M308.966,273.655     c0,4.882-3.946,8.828-8.828,8.828H256c-4.882,0-8.828-3.946-8.828-8.828v-44.138c0-4.882,3.946-8.828,8.828-8.828h44.138     c4.882,0,8.828,3.946,8.828,8.828V273.655z M308.966,194.207c0,4.882-3.946,8.828-8.828,8.828H256     c-4.882,0-8.828-3.946-8.828-8.828v-44.138c0-4.882,3.946-8.828,8.828-8.828h44.138c4.882,0,8.828,3.946,8.828,8.828V194.207z      M388.414,432.552c0,4.882-3.946,8.828-8.828,8.828h-44.138c-4.882,0-8.828-3.946-8.828-8.828v-44.138     c0-4.882,3.946-8.828,8.828-8.828h44.138c4.882,0,8.828,3.946,8.828,8.828V432.552z M388.414,353.103     c0,4.882-3.946,8.828-8.828,8.828h-44.138c-4.882,0-8.828-3.946-8.828-8.828v-44.138c0-4.882,3.946-8.828,8.828-8.828h44.138     c4.882,0,8.828,3.946,8.828,8.828V353.103z M388.414,273.655c0,4.882-3.946,8.828-8.828,8.828h-44.138     c-4.882,0-8.828-3.946-8.828-8.828v-44.138c0-4.882,3.946-8.828,8.828-8.828h44.138c4.882,0,8.828,3.946,8.828,8.828V273.655z      M388.414,194.207c0,4.882-3.946,8.828-8.828,8.828h-44.138c-4.882,0-8.828-3.946-8.828-8.828v-44.138     c0-4.882,3.946-8.828,8.828-8.828h44.138c4.882,0,8.828,3.946,8.828,8.828V194.207z M467.862,432.552     c0,4.882-3.946,8.828-8.828,8.828h-44.138c-4.882,0-8.828-3.946-8.828-8.828v-44.138c0-4.882,3.946-8.828,8.828-8.828h44.138     c4.882,0,8.828,3.946,8.828,8.828V432.552z M467.862,353.103c0,4.882-3.946,8.828-8.828,8.828h-44.138     c-4.882,0-8.828-3.946-8.828-8.828v-44.138c0-4.882,3.946-8.828,8.828-8.828h44.138c4.882,0,8.828,3.946,8.828,8.828V353.103z      M467.862,273.655c0,4.882-3.946,8.828-8.828,8.828h-44.138c-4.882,0-8.828-3.946-8.828-8.828v-44.138     c0-4.882,3.946-8.828,8.828-8.828h44.138c4.882,0,8.828,3.946,8.828,8.828V273.655z M467.862,194.207     c0,4.882-3.946,8.828-8.828,8.828h-44.138c-4.882,0-8.828-3.946-8.828-8.828v-44.138c0-4.882,3.946-8.828,8.828-8.828h44.138     c4.882,0,8.828,3.946,8.828,8.828V194.207z" style="fill: rgb(216, 0, 39);"></path>
		</g>
	</g>
</g>
<g>
</g>
<g>
</g>
<g>
</g>
<g>
</g>
<g>
</g>
<g>
</g>
<g>
</g>
<g>
</g>
<g>
</g>
<g>
</g>
<g>
</g>
<g>
</g>
<g>
</g>
<g>
</g>
<g>
</g>
</svg>