<svg xmlns="http://www.w3.org/2000/svg" xmlns:xlink="http://www.w3.org/1999/xlink" version="1.1" id="Layer_1" x="0px" y="0px" viewBox="0 0 512 512" style="enable-background:new 0 0 512 512;" xml:space="preserve">
<g>
	<g>
		<path d="M256,0C114.837,0,0,114.837,0,256c0,94.4,51.733,180.843,134.997,225.579c1.6,0.875,3.328,1.28,5.035,1.28    c3.797,0,7.488-2.027,9.408-5.632c2.795-5.184,0.832-11.648-4.352-14.443C68.757,421.76,21.333,342.528,21.333,256    c0-129.387,105.28-234.667,234.667-234.667S490.667,126.613,490.667,256c0,12.544-1.195,25.643-3.669,39.979    c-0.981,5.803,2.923,11.328,8.704,12.309c5.867,0.981,11.328-2.901,12.331-8.704C510.699,284.032,512,269.781,512,256    C512,114.837,397.163,0,256,0z" style="fill: rgb(0, 0, 0);"></path>
	</g>
</g>
<g>
	<g>
		<path d="M64.085,256c0-51.349,19.925-99.563,56.149-135.765c4.16-4.16,4.16-10.923,0-15.083c-4.16-4.16-10.923-4.16-15.083,0    c-40.235,40.235-62.4,93.803-62.4,150.848s22.165,110.613,62.379,150.848c2.091,2.069,4.821,3.115,7.552,3.115    s5.461-1.045,7.552-3.115c4.16-4.16,4.16-10.923,0-15.083C84.032,355.563,64.085,307.349,64.085,256z" style="fill: rgb(0, 0, 0);"></path>
	</g>
</g>
<g>
	<g>
		<path d="M437.333,320H224c-29.419,0-53.333,23.936-53.333,53.333v85.333C170.667,488.064,194.581,512,224,512h213.333    c29.419,0,53.333-23.936,53.333-53.333v-85.333C490.667,343.936,466.752,320,437.333,320z M469.333,458.667    c0,17.643-14.357,32-32,32H224c-17.643,0-32-14.357-32-32v-85.333c0-17.643,14.357-32,32-32h213.333c17.643,0,32,14.357,32,32    V458.667z" style="fill: rgb(0, 0, 0);"></path>
	</g>
</g>
<g>
	<g>
		<path d="M256,149.333c-58.816,0-106.667,47.851-106.667,106.667c0,18.667,5.269,37.376,15.253,54.165    c2.005,3.371,5.547,5.227,9.173,5.227c1.835,0,3.733-0.491,5.44-1.515c5.056-3.008,6.741-9.557,3.712-14.613    c-8.128-13.675-12.245-28.224-12.245-43.264c0-47.061,38.272-85.333,85.333-85.333s85.333,38.272,85.333,85.333    c0,9.152-1.728,18.453-5.291,28.416c-1.984,5.547,0.917,11.648,6.464,13.632c5.568,1.963,11.669-0.917,13.632-6.464    c4.395-12.309,6.528-23.957,6.528-35.584C362.667,197.184,314.816,149.333,256,149.333z" style="fill: rgb(0, 0, 0);"></path>
	</g>
</g>
<g>
	<g>
		<path d="M379.264,407.125l-64-42.667c-3.307-2.176-7.488-2.368-10.965-0.533c-3.456,1.856-5.632,5.461-5.632,9.408v85.333    c0,3.947,2.176,7.552,5.632,9.408c1.579,0.832,3.307,1.259,5.035,1.259c2.069,0,4.117-0.597,5.909-1.792l64-42.667    c2.965-1.984,4.757-5.312,4.757-8.875C384,412.437,382.208,409.109,379.264,407.125z M320,438.741v-45.483L354.112,416    L320,438.741z" style="fill: rgb(0, 0, 0);"></path>
	</g>
</g>
<g>
	<g>
		<path d="M256,234.667c-11.776,0-21.333,9.579-21.333,21.333s9.557,21.333,21.333,21.333s21.333-9.579,21.333-21.333    S267.776,234.667,256,234.667z" style="fill: rgb(0, 0, 0);"></path>
	</g>
</g>
<g>
</g>
<g>
</g>
<g>
</g>
<g>
</g>
<g>
</g>
<g>
</g>
<g>
</g>
<g>
</g>
<g>
</g>
<g>
</g>
<g>
</g>
<g>
</g>
<g>
</g>
<g>
</g>
<g>
</g>
</svg>